<svg id="Layer_1" enable-background="new 0 0 512 512" height="512" viewBox="0 0 512 512" width="512" xmlns="http://www.w3.org/2000/svg"><g><path d="m497 0h-482c-8.284 0-15 6.716-15 15v305.267c0 8.284 6.716 15 15 15h193.867v161.733c0 8.284 6.716 15 15 15h64.267c8.284 0 15-6.716 15-15v-161.733h193.866c8.284 0 15-6.716 15-15v-305.267c0-8.284-6.716-15-15-15zm-223.866 482h-34.267v-146.733h34.267zm208.866-176.733h-452v-275.267h452z"/><path d="m95.333 254.933h40.167c30.419 0 55.167-24.748 55.167-55.167 0-18.995-9.649-35.778-24.304-45.705 5.195-7.575 8.238-16.736 8.238-26.595 0-25.989-21.144-47.133-47.133-47.133h-32.135c-8.284 0-15 6.716-15 15v144.6c0 8.284 6.716 15 15 15zm15-144.6h17.133c9.447 0 17.133 7.686 17.133 17.133s-7.686 17.133-17.133 17.133h-17.133zm0 64.267h25.167c13.877 0 25.167 11.29 25.167 25.167s-11.29 25.167-25.167 25.167h-25.167z"/><path d="m231.9 254.933h40.167c8.284 0 15-6.716 15-15s-6.716-15-15-15h-25.167v-129.6c0-8.284-6.716-15-15-15s-15 6.716-15 15v144.6c0 8.284 6.716 15 15 15z"/><path d="m320.267 254.933c8.284 0 15-6.716 15-15v-99.6l21.2 28.267c2.833 3.777 7.278 6 12 6s9.167-2.223 12-6l21.2-28.267v99.6c0 8.284 6.716 15 15 15s15-6.716 15-15v-144.6c0-6.457-4.132-12.188-10.257-14.23-6.122-2.039-12.868.065-16.743 5.23l-36.2 48.267-36.2-48.267c-3.874-5.165-10.621-7.271-16.743-5.23-6.125 2.042-10.257 7.774-10.257 14.23v144.6c0 8.284 6.715 15 15 15z"/></g></svg>